<svg width="512" height="512" viewBox="0 0 512 512" fill="none" xmlns="http://www.w3.org/2000/svg">
<mask id="mask0_67_1788" style="mask-type:luminance" maskUnits="userSpaceOnUse" x="6" y="57" width="500" height="399">
<path d="M506 57H6V456H506V57Z" fill="white"/>
</mask>
<g mask="url(#mask0_67_1788)">
<path fill-rule="evenodd" clip-rule="evenodd" d="M273.21 71.9772C270.797 69.9461 267.293 69.8718 264.796 71.7988L92.6355 204.631C90.9909 205.899 90.0278 207.859 90.0278 209.935V308.743H76.6191V209.935C76.6191 203.706 79.5085 197.828 84.442 194.022L256.602 61.1898C264.095 55.4088 274.606 55.6317 281.847 61.725L454.737 207.221C459.276 211.041 461.896 216.669 461.896 222.6V387.798H448.487V222.6C448.487 220.623 447.614 218.747 446.101 217.474L273.21 71.9772Z" fill="#34A853"/>
<path d="M392.825 270.603C392.825 268.958 394.16 267.625 395.805 267.625H401.735C403.38 267.625 404.714 268.958 404.714 270.603V315.724C404.714 317.369 403.38 318.702 401.735 318.702H377.912V305.047H389.846C391.491 305.047 392.825 303.713 392.825 302.069V270.603ZM377.912 318.702C377.147 318.702 376.626 318.077 376.348 316.826C376 315.575 375.826 313.872 375.826 311.718C375.826 309.703 376 308.105 376.348 306.923C376.626 305.672 377.147 305.047 377.912 305.047V318.702ZM394.285 347.264C392.2 347.264 390.427 346.534 388.967 345.075C387.507 343.685 386.777 341.913 386.777 339.759C386.777 337.604 387.507 335.797 388.967 334.338C390.427 332.948 392.2 332.253 394.285 332.253C396.51 332.253 398.318 332.948 399.709 334.338C401.169 335.797 401.899 337.604 401.899 339.759C401.899 341.913 401.169 343.685 399.709 345.075C398.318 346.534 396.51 347.264 394.285 347.264Z" fill="#34A853"/>
<path d="M358.765 318.702V305.047H377.955V318.702H358.765ZM377.955 318.702V305.047C378.72 305.047 379.241 305.672 379.519 306.923C379.867 308.174 380.041 309.807 380.041 311.822C380.041 313.907 379.867 315.575 379.519 316.826C379.241 318.077 378.72 318.702 377.955 318.702ZM358.765 318.702C358.001 318.702 357.479 318.077 357.201 316.826C356.854 315.575 356.68 313.872 356.68 311.718C356.68 309.703 356.854 308.105 357.201 306.923C357.479 305.672 358.001 305.047 358.765 305.047V318.702Z" fill="#34A853"/>
<path d="M339.619 318.702V305.047H358.808V318.702H339.619ZM358.808 318.702V305.047C359.573 305.047 360.095 305.672 360.373 306.923C360.72 308.174 360.894 309.807 360.894 311.822C360.894 313.907 360.72 315.575 360.373 316.826C360.095 318.077 359.573 318.702 358.808 318.702ZM339.619 318.702C338.854 318.702 338.333 318.077 338.055 316.826C337.707 315.575 337.533 313.872 337.533 311.718C337.533 309.703 337.707 308.105 338.055 306.923C338.333 305.672 338.854 305.047 339.619 305.047V318.702Z" fill="#34A853"/>
<path d="M320.471 318.702V305.047H339.66V318.702H320.471ZM339.66 318.702V305.047C340.425 305.047 340.946 305.672 341.224 306.923C341.572 308.174 341.746 309.807 341.746 311.822C341.746 313.907 341.572 315.575 341.224 316.826C340.946 318.077 340.425 318.702 339.66 318.702ZM320.471 318.702C319.706 318.702 319.184 318.077 318.906 316.826C318.559 315.575 318.385 313.872 318.385 311.718C318.385 309.703 318.559 308.105 318.906 306.923C319.184 305.672 319.706 305.047 320.471 305.047V318.702Z" fill="#34A853"/>
<path d="M278.512 318.702V305.047H283.935C286.855 305.047 289.045 304.838 290.505 304.421C291.965 303.935 292.938 303.066 293.425 301.815C293.912 300.565 294.155 298.758 294.155 296.395V270.603C294.155 268.958 295.489 267.625 297.135 267.625H303.064C304.71 267.625 306.044 268.958 306.044 270.603V296.395C306.044 301.329 305.245 305.464 303.645 308.8C302.046 312.066 299.613 314.533 296.345 316.2C293.147 317.868 289.01 318.702 283.935 318.702H278.512ZM316.265 318.702C311.259 318.702 307.122 317.868 303.854 316.2C300.586 314.533 298.153 312.066 296.554 308.8C294.955 305.464 294.155 301.329 294.155 296.395H306.044C306.044 298.758 306.287 300.565 306.774 301.815C307.33 303.066 308.338 303.935 309.799 304.421C311.259 304.838 313.414 305.047 316.265 305.047H320.436V318.702H316.265ZM320.436 318.702V305.047C321.201 305.047 321.722 305.672 322 306.923C322.348 308.174 322.522 309.807 322.522 311.822C322.522 313.907 322.348 315.575 322 316.826C321.722 318.077 321.201 318.702 320.436 318.702ZM278.512 318.702C277.747 318.702 277.225 318.077 276.947 316.826C276.6 315.575 276.426 313.872 276.426 311.718C276.426 309.703 276.6 308.105 276.947 306.923C277.225 305.672 277.747 305.047 278.512 305.047V318.702ZM307.608 344.032C305.731 344.032 304.167 343.372 302.915 342.052C301.664 340.801 301.038 339.237 301.038 337.361C301.038 335.415 301.664 333.817 302.915 332.566C304.167 331.385 305.731 330.794 307.608 330.794C309.555 330.794 311.154 331.385 312.406 332.566C313.657 333.817 314.283 335.415 314.283 337.361C314.283 339.237 313.657 340.801 312.406 342.052C311.154 343.372 309.555 344.032 307.608 344.032ZM292.278 344.032C290.331 344.032 288.732 343.372 287.481 342.052C286.229 340.801 285.603 339.237 285.603 337.361C285.603 335.415 286.229 333.817 287.481 332.566C288.732 331.385 290.331 330.794 292.278 330.794C294.155 330.794 295.719 331.385 296.971 332.566C298.292 333.817 298.952 335.415 298.952 337.361C298.952 339.237 298.292 340.801 296.971 342.052C295.719 343.372 294.155 344.032 292.278 344.032Z" fill="#34A853"/>
<path d="M259.363 318.702V305.047H278.552V318.702H259.363ZM278.552 318.702V305.047C279.317 305.047 279.839 305.672 280.117 306.923C280.464 308.174 280.638 309.807 280.638 311.822C280.638 313.907 280.464 315.575 280.117 316.826C279.839 318.077 279.317 318.702 278.552 318.702ZM259.363 318.702C258.598 318.702 258.077 318.077 257.799 316.826C257.451 315.575 257.277 313.872 257.277 311.718C257.277 309.703 257.451 308.105 257.799 306.923C258.077 305.672 258.598 305.047 259.363 305.047V318.702Z" fill="#34A853"/>
<path d="M240.217 318.702V305.047H259.406V318.702H240.217ZM259.406 318.702V305.047C260.171 305.047 260.692 305.672 260.97 306.923C261.318 308.174 261.492 309.807 261.492 311.822C261.492 313.907 261.318 315.575 260.97 316.826C260.692 318.077 260.171 318.702 259.406 318.702ZM240.217 318.702C239.452 318.702 238.93 318.077 238.652 316.826C238.305 315.575 238.131 313.872 238.131 311.718C238.131 309.703 238.305 308.105 238.652 306.923C238.93 305.672 239.452 305.047 240.217 305.047V318.702Z" fill="#34A853"/>
<path d="M221.07 318.702V305.047H240.26V318.702H221.07ZM240.26 318.702V305.047C241.024 305.047 241.546 305.672 241.824 306.923C242.172 308.174 242.345 309.807 242.345 311.822C242.345 313.907 242.172 315.575 241.824 316.826C241.546 318.077 241.024 318.702 240.26 318.702ZM221.07 318.702C220.305 318.702 219.784 318.077 219.506 316.826C219.158 315.575 218.984 313.872 218.984 311.718C218.984 309.703 219.158 308.105 219.506 306.923C219.784 305.672 220.305 305.047 221.07 305.047V318.702Z" fill="#34A853"/>
<path d="M201.924 318.702V305.047H221.113V318.702H201.924ZM221.113 318.702V305.047C221.878 305.047 222.399 305.672 222.677 306.923C223.025 308.174 223.199 309.807 223.199 311.822C223.199 313.907 223.025 315.575 222.677 316.826C222.399 318.077 221.878 318.702 221.113 318.702ZM201.924 318.702C201.159 318.702 200.637 318.077 200.359 316.826C200.012 315.575 199.838 313.872 199.838 311.718C199.838 309.703 200.012 308.105 200.359 306.923C200.637 305.672 201.159 305.047 201.924 305.047V318.702Z" fill="#34A853"/>
<path d="M159.963 318.702V305.047H165.386C168.306 305.047 170.496 304.838 171.956 304.422C173.416 303.935 174.39 303.066 174.876 301.816C175.363 300.565 175.606 298.758 175.606 296.395V270.603C175.606 268.958 176.94 267.625 178.586 267.625H184.516C186.161 267.625 187.495 268.958 187.495 270.603V296.395C187.495 301.329 186.696 305.464 185.097 308.8C183.498 312.066 181.064 314.533 177.796 316.201C174.598 317.868 170.461 318.702 165.386 318.702H159.963ZM197.716 318.702C192.71 318.702 188.573 317.868 185.305 316.201C182.037 314.533 179.604 312.066 178.005 308.8C176.406 305.464 175.606 301.329 175.606 296.395H187.495C187.495 298.758 187.739 300.565 188.225 301.816C188.782 303.066 189.79 303.935 191.25 304.422C192.71 304.838 194.865 305.047 197.716 305.047H201.887V318.702H197.716ZM201.887 318.702V305.047C202.652 305.047 203.174 305.672 203.452 306.923C203.799 308.174 203.973 309.807 203.973 311.823C203.973 313.907 203.799 315.575 203.452 316.826C203.174 318.077 202.652 318.702 201.887 318.702ZM159.963 318.702C159.198 318.702 158.677 318.077 158.398 316.826C158.051 315.575 157.877 313.873 157.877 311.718C157.877 309.703 158.051 308.105 158.398 306.923C158.677 305.672 159.198 305.047 159.963 305.047V318.702ZM189.164 255.533C187.217 255.533 185.618 254.908 184.367 253.657C183.115 252.406 182.489 250.843 182.489 248.966C182.489 246.951 183.115 245.353 184.367 244.171C185.618 242.92 187.217 242.295 189.164 242.295C191.041 242.295 192.605 242.92 193.857 244.171C195.108 245.353 195.734 246.951 195.734 248.966C195.734 250.843 195.108 252.406 193.857 253.657C192.605 254.908 191.041 255.533 189.164 255.533ZM173.729 255.533C171.782 255.533 170.183 254.908 168.932 253.657C167.68 252.406 167.054 250.843 167.054 248.966C167.054 246.951 167.68 245.353 168.932 244.171C170.183 242.92 171.782 242.295 173.729 242.295C175.606 242.295 177.171 242.92 178.422 244.171C179.743 245.353 180.404 246.951 180.404 248.966C180.404 250.843 179.743 252.406 178.422 253.657C177.171 254.908 175.606 255.533 173.729 255.533Z" fill="#34A853"/>
<path d="M140.816 318.702V305.047H160.006V318.702H140.816ZM160.006 318.702V305.047C160.77 305.047 161.292 305.672 161.57 306.923C161.918 308.174 162.091 309.807 162.091 311.822C162.091 313.907 161.918 315.575 161.57 316.826C161.292 318.077 160.77 318.702 160.006 318.702ZM140.816 318.702C140.051 318.702 139.53 318.077 139.252 316.826C138.904 315.575 138.73 313.872 138.73 311.718C138.73 309.703 138.904 308.105 139.252 306.923C139.53 305.672 140.051 305.047 140.816 305.047V318.702Z" fill="#34A853"/>
<path d="M121.668 318.702V305.047H140.857V318.702H121.668ZM140.857 318.702V305.047C141.622 305.047 142.143 305.672 142.422 306.923C142.769 308.174 142.943 309.807 142.943 311.822C142.943 313.907 142.769 315.575 142.422 316.826C142.143 318.077 141.622 318.702 140.857 318.702ZM121.668 318.702C120.903 318.702 120.382 318.077 120.103 316.826C119.756 315.575 119.582 313.872 119.582 311.718C119.582 309.703 119.756 308.105 120.103 306.923C120.382 305.672 120.903 305.047 121.668 305.047V318.702Z" fill="#34A853"/>
<path d="M102.521 318.702V305.047H121.711V318.702H102.521ZM121.711 318.702V305.047C122.475 305.047 122.997 305.672 123.275 306.923C123.623 308.174 123.796 309.807 123.796 311.822C123.796 313.907 123.623 315.575 123.275 316.826C122.997 318.077 122.475 318.702 121.711 318.702ZM102.521 318.702C101.757 318.702 101.235 318.077 100.957 316.826C100.609 315.575 100.436 313.872 100.436 311.718C100.436 309.703 100.609 308.105 100.957 306.923C101.235 305.672 101.757 305.047 102.521 305.047V318.702Z" fill="#34A853"/>
<path d="M83.7705 318.702C83.9022 318.702 84.0089 318.595 84.0089 318.463V308.025C84.0089 306.38 85.3429 305.046 86.9886 305.046H102.26V318.702H93.1342H83.7705ZM37.3913 318.702C32.0377 318.702 27.3794 317.937 23.4164 316.408C19.4534 314.88 16.1857 312.795 13.6132 310.154C11.0407 307.513 9.1287 304.525 7.87722 301.189C6.62574 297.854 6 294.344 6 290.661C6 287.256 6.48669 283.851 7.46006 280.446C8.25958 277.782 9.34514 275.241 10.7167 272.822C11.4409 271.545 13.034 271.097 14.37 271.707L18.8352 273.744C20.3699 274.444 21.005 276.273 20.3553 277.829C19.6684 279.474 19.1245 281.076 18.7234 282.635C18.0976 285.067 17.7848 287.326 17.7848 289.41C17.7848 292.816 18.5148 295.7 19.9749 298.062C21.4349 300.356 23.625 302.093 26.5451 303.274C29.4652 304.456 33.0459 305.046 37.287 305.046H75.0846C76.7303 305.046 78.0643 303.713 78.0643 302.068V234.953C78.0643 233.308 79.3984 231.975 81.0441 231.975H86.9737C88.6193 231.975 89.9534 233.308 89.9534 234.953V315.723C89.9534 317.368 88.6193 318.702 86.9737 318.702H37.3913ZM102.26 318.702V305.046C103.024 305.046 103.546 305.672 103.824 306.923C104.172 308.174 104.345 309.807 104.345 311.822C104.345 313.907 104.172 315.575 103.824 316.825C103.546 318.076 103.024 318.702 102.26 318.702ZM41.1014 279.159C39.4563 279.2 38.1213 277.862 38.1213 276.217V275.085C38.1213 273.44 39.4557 272.111 41.1003 272.054C43.2596 271.978 45.4996 271.822 47.8203 271.586C50.7801 271.223 53.2414 270.782 55.2041 270.263C55.5392 270.174 55.8349 270.515 55.6914 270.831C55.6046 271.022 55.3857 271.114 55.188 271.043L45.6302 267.624C43.892 266.93 42.6405 266.061 41.8757 265.018C41.1109 263.907 40.7285 262.76 40.7285 261.579C40.7285 259.355 41.4586 257.166 42.9186 255.011C44.4482 252.788 46.6035 250.946 49.3846 249.487C51.3914 248.384 53.6335 247.678 56.111 247.371C57.7441 247.169 59.0836 248.527 59.0836 250.172V251.512C59.0836 253.157 57.7411 254.457 56.1143 254.705C54.6082 254.935 53.2341 255.35 51.9919 255.95C50.0451 256.853 48.5155 258.034 47.4031 259.494C47.0952 259.925 46.8327 260.356 46.6157 260.786C46.2251 261.562 44.6853 261.832 44.2579 261.076C43.871 260.392 44.5464 259.597 45.2846 259.867L55.642 263.663C57.7278 264.428 59.1879 265.401 60.0222 266.582C60.8565 267.694 61.2737 268.771 61.2737 269.813C61.2737 270.995 60.9956 272.141 60.4394 273.253C59.8831 274.296 58.8055 275.269 57.2064 276.172C55.6768 277.075 53.3476 277.805 50.2189 278.361C47.7922 278.802 44.7531 279.068 41.1014 279.159Z" fill="#34A853"/>
<path d="M472.004 428.616C470.997 427.209 468.94 427.109 467.802 428.412L462.707 434.246C462.281 434.734 462.046 435.36 462.046 436.008V453.319C462.046 454.8 460.845 456 459.364 456H451.17C449.689 456 448.488 454.8 448.488 453.319V386.011C448.488 384.53 449.689 383.33 451.17 383.33H459.215C460.696 383.33 461.897 384.53 461.897 386.011V408.961C461.897 411.453 465.003 412.597 466.62 410.699L489.148 384.272C489.657 383.674 490.404 383.33 491.189 383.33H500.98C503.277 383.33 504.511 386.028 503.008 387.764L480.796 413.426C479.987 414.361 479.922 415.727 480.639 416.734L505.499 451.646C506.763 453.42 505.493 455.881 503.314 455.881H492.894C492.029 455.881 491.217 455.463 490.713 454.76L472.004 428.616Z" fill="#34A853"/>
<path d="M405.029 441.091C404.685 440.153 403.791 439.53 402.792 439.53H375.146C374.146 439.53 373.253 440.153 372.908 441.091L368.006 454.438C367.662 455.376 366.768 456 365.769 456H357.12C355.452 456 354.3 454.331 354.892 452.772L380.616 384.987C380.967 384.061 381.854 383.449 382.845 383.449H395.615C396.605 383.449 397.492 384.061 397.843 384.987L423.568 452.772C424.159 454.331 423.007 456 421.339 456H412.169C411.169 456 410.276 455.376 409.931 454.438L405.029 441.091ZM396.784 427.855C398.436 427.855 399.587 426.216 399.025 424.663L391.252 403.17C390.495 401.077 387.535 401.072 386.771 403.163L378.926 424.656C378.358 426.21 379.51 427.855 381.165 427.855H396.784Z" fill="#34A853"/>
<path d="M305.212 399.636C305.212 397.662 303.611 396.062 301.636 396.062H288.138C286.163 396.062 284.562 394.462 284.562 392.488V387.023C284.562 385.049 286.163 383.449 288.138 383.449H336.052C338.027 383.449 339.628 385.049 339.628 387.023V392.488C339.628 394.462 338.027 396.062 336.052 396.062H322.554C320.579 396.062 318.978 397.662 318.978 399.636V452.426C318.978 454.4 317.378 456 315.404 456H308.788C306.813 456 305.212 454.4 305.212 452.426V399.636Z" fill="#34A853"/>
<path d="M245.734 386.427C245.734 384.783 247.068 383.449 248.714 383.449H256.521C258.167 383.449 259.501 384.783 259.501 386.427V453.021C259.501 454.666 258.167 456 256.521 456H248.714C247.068 456 245.734 454.666 245.734 453.021V386.427Z" fill="#34A853"/>
<path d="M203.6 441.091C203.255 440.153 202.362 439.53 201.362 439.53H173.716C172.717 439.53 171.823 440.153 171.479 441.091L166.577 454.438C166.232 455.376 165.339 456 164.339 456H155.691C154.022 456 152.87 454.331 153.462 452.772L179.186 384.987C179.537 384.061 180.424 383.449 181.415 383.449H194.185C195.175 383.449 196.062 384.061 196.414 384.987L222.138 452.772C222.73 454.331 221.577 456 219.909 456H210.739C209.74 456 208.846 455.376 208.502 454.438L203.6 441.091ZM195.354 427.855C197.006 427.855 198.157 426.216 197.596 424.663L189.823 403.17C189.066 401.077 186.105 401.072 185.342 403.163L177.496 424.656C176.928 426.21 178.08 427.855 179.735 427.855H195.354Z" fill="#34A853"/>
<path d="M123.729 416.6C122.721 417.351 122.789 419.039 123.87 419.682C126.271 421.113 128.186 422.899 129.614 425.041C131.561 427.959 132.534 431.504 132.534 435.673C132.534 442.275 130.136 447.313 125.338 450.788C120.541 454.262 113.588 456 104.48 456H79.1676C78.3448 456 77.6777 455.333 77.6777 454.511V384.938C77.6777 384.116 78.3448 383.449 79.1676 383.449H105.732C113.588 383.449 119.637 385.117 123.878 388.453C128.119 391.719 130.24 396.41 130.24 402.525C130.24 408.671 128.07 413.363 123.729 416.6ZM92.9339 395.541C92.1111 395.541 91.444 396.208 91.444 397.03V411.356C91.444 412.178 92.1111 412.845 92.9339 412.845H104.48C108.235 412.845 111.051 412.08 112.928 410.551C114.805 409.023 115.744 406.799 115.744 403.88C115.744 400.683 114.909 398.494 113.241 397.313C111.642 396.132 108.756 395.541 104.585 395.541H92.9339ZM104.48 443.804C109.417 443.804 112.893 443.109 114.909 441.719C116.995 440.26 118.038 437.793 118.038 434.318C118.038 431.052 116.926 428.654 114.701 427.125C112.545 425.597 109.173 424.832 104.585 424.832H92.9339C92.1111 424.832 91.444 425.499 91.444 426.321V442.315C91.444 443.137 92.1111 443.804 92.9339 443.804H104.48Z" fill="#34A853"/>
</g>
</svg>
